<svg width="36" height="36" viewBox="0 0 36 36" fill="none" xmlns="http://www.w3.org/2000/svg">
<g clip-path="url(#clip0_11722_10980)">
<path d="M6.93937 0.216312C6.64615 0.469997 5.80724 2.22042 5.50588 3.17597C5.14751 4.35983 5.02534 5.24772 5.07421 6.47387C5.13937 8.22429 5.57919 9.5519 6.54842 10.9387C6.80091 11.3023 7.00453 11.6152 7.00453 11.6406C7.00453 11.6575 6.84977 11.6744 6.6543 11.6744C5.81538 11.6744 4.24344 11.9534 3.03801 12.3171C1.12398 12.8921 0 13.8984 0 15.023C0 15.4205 0.358371 16.097 0.741176 16.4437C1.48235 17.1117 3.10317 17.7459 4.84615 18.0503C5.44887 18.1603 7.24072 18.3463 7.63982 18.3548C7.71312 18.3548 7.73756 18.7437 7.73756 20.0206C7.73756 21.1199 7.77828 21.974 7.85973 22.4983C8.15294 24.3755 9.06516 26.3627 10.2706 27.7664L10.686 28.2484L10.409 28.6966C10.0018 29.3308 9.84706 29.8128 9.79819 30.5316C9.67602 32.2567 10.7511 33.7872 12.8281 34.8612C16.7864 36.916 22.9357 36.1127 25.2407 33.2376C26.3647 31.8339 26.495 30.2272 25.6072 28.7727L25.3303 28.3245L25.8272 27.7242C26.7557 26.608 27.3584 25.4917 27.8145 24.0796C28.1973 22.8788 28.3439 21.7203 28.3439 19.8853C28.3439 19.0482 28.3683 18.3548 28.4091 18.3548C28.7837 18.3463 30.5837 18.1518 31.1538 18.0503C32.905 17.7459 34.4932 17.1202 35.2588 16.4437C35.6416 16.097 36 15.4205 36 15.023C36 13.7715 34.7294 12.7568 32.3674 12.1479C31.5937 11.945 30.1357 11.6998 29.4272 11.6575L29.0932 11.6321L29.4597 11.1247C29.9158 10.5074 30.486 9.30667 30.7059 8.52025C31.3249 6.24555 30.9421 3.59877 29.6145 1.07038C29.0606 0.0218239 28.6778 -0.223404 28.2299 0.190945C28.0588 0.351612 27.9855 0.571472 27.8226 1.36635C27.3176 3.89474 26.381 5.89885 25.0127 7.37867L24.41 8.03825H17.9674H11.5249L10.9873 7.45478C9.65158 5.98341 8.68235 3.90319 8.17738 1.36635C8.01448 0.571472 7.94118 0.351612 7.77014 0.190945C7.50136 -0.0542831 7.24072 -0.045826 6.93937 0.216312ZM7.9819 5.23081C8.41358 6.1779 8.95113 7.0658 9.58643 7.88604L10.0914 8.53716L9.56199 8.9346C9.06516 9.31513 8.60091 9.85633 8.24253 10.4736L8.08778 10.7527L7.69683 10.2199C6.36109 8.3765 6.02715 6.11871 6.73575 3.77636C7.07783 2.64323 7.06968 2.65169 7.37919 3.6326C7.52579 4.10614 7.80272 4.82492 7.9819 5.23081ZM29.1828 3.44656C29.5167 4.45285 29.6471 5.25618 29.6471 6.29629C29.6471 7.8353 29.2398 9.13755 28.3846 10.3045L28.0018 10.8288L27.7167 10.3468C27.3828 9.75485 26.8127 9.13755 26.2914 8.78239C26.0715 8.63864 25.9005 8.49488 25.9005 8.47797C25.9005 8.4526 26.0552 8.25811 26.2507 8.04671C27.1548 7.04043 28.124 5.23081 28.6045 3.67488C28.7511 3.19288 28.8977 2.79544 28.9222 2.79544C28.9466 2.79544 29.0688 3.09141 29.1828 3.44656ZM25.0208 9.62801C25.9249 10.0085 26.7882 11.0994 26.9267 12.0211C27 12.5285 27.171 12.8498 27.391 12.9005C27.4887 12.9174 28.1647 12.9766 28.8896 13.0274C31.4634 13.1965 33.4914 13.7462 34.3548 14.4987C34.7538 14.8539 34.7131 15.1499 34.2326 15.5135C33.2715 16.2407 31.1946 16.7904 29.0769 16.8834C27.676 16.9426 27.3828 16.9849 27.1955 17.1793C27.057 17.3231 27.0407 17.4753 27.0407 19.0059C27.0407 21.0776 26.9348 22.2699 26.6742 23.2339C26.3077 24.5447 25.5828 25.9399 24.7357 26.9293L24.3855 27.3352L23.6606 26.9039C22.781 26.3796 21.9584 26.0414 20.9729 25.8131C17.886 25.0774 14.4733 25.5256 12.1765 26.9716L11.6471 27.3098L11.3131 26.9124C10.857 26.3796 10.1403 25.2381 9.8552 24.5954C9.22806 23.1409 9.04072 21.9571 9.04072 19.3526C9.04072 16.8242 9.17104 17.0102 7.29774 16.9088C4.90317 16.7819 3.07873 16.3506 1.93032 15.6234C1.08326 15.0822 1.22172 14.6002 2.40271 14.0337C3.53484 13.484 5.0905 13.1542 7.24887 13.0189C8.9267 12.909 8.96742 12.8836 9.12217 12.0718C9.35023 10.8457 10.2543 9.83096 11.3946 9.50962C11.6796 9.42506 13.276 9.40815 18.1629 9.4166L24.5566 9.43352L25.0208 9.62801ZM20.4434 27.1322C22.4389 27.6227 23.9294 28.536 24.5729 29.6691C24.7276 29.9312 24.7928 30.2018 24.8253 30.6162C24.8579 31.132 24.8335 31.2588 24.638 31.6816C23.7339 33.6012 20.4109 34.8696 17.0308 34.5821C12.9665 34.2439 10.295 31.9776 11.3457 29.7536C11.9158 28.5529 13.8462 27.4028 15.8824 27.0646C16.2163 27.0138 16.5502 26.9547 16.6154 26.9377C16.6805 26.9208 17.4136 26.9208 18.2443 26.9377C19.3765 26.9631 19.9222 27.0138 20.4434 27.1322Z" fill="#131313"/>
<path d="M12.3635 13.8613C11.8585 14.0304 11.5164 14.2502 11.0603 14.7067C10.6612 15.0871 10.6286 15.5352 10.9626 15.8057C11.2721 16.0593 11.5653 16.0255 11.9399 15.6958C12.4123 15.2816 12.7789 15.1125 13.235 15.1125C13.6911 15.104 14.0413 15.2647 14.53 15.6958C14.9046 16.0255 15.1979 16.0593 15.5074 15.8057C15.6703 15.6705 15.7191 15.5606 15.7191 15.3069C15.7191 15.0449 15.6621 14.9265 15.377 14.6391C14.5707 13.8275 13.3734 13.5147 12.3635 13.8613Z" fill="#131313"/>
<path d="M21.8606 13.8525C21.3393 14.047 20.6714 14.4866 20.4026 14.8163C20.142 15.1376 20.1339 15.5011 20.4026 15.7716C20.6714 16.0591 20.9972 16.0421 21.3882 15.7209C22.3492 14.9262 23.066 14.9008 23.9538 15.6364C24.1818 15.8308 24.4425 15.983 24.5239 15.983C24.923 15.983 25.2488 15.6279 25.2488 15.2052C25.2488 14.9347 24.5728 14.3091 23.9619 14.0132C23.2859 13.6835 22.4796 13.6243 21.8606 13.8525Z" fill="#131313"/>
<path d="M13.5448 29.5015C13.3086 29.7298 13.2272 30.0595 13.3493 30.3216C13.4389 30.5329 13.5774 30.6175 14.1394 30.7697C14.3919 30.8373 14.4978 30.9218 14.5874 31.1332C14.7014 31.4122 14.7095 31.4122 15.3367 31.4375L15.9638 31.4629V31.2262C15.9557 30.888 15.7683 30.3977 15.524 30.0595C15.2389 29.6706 14.7421 29.417 14.1801 29.3663C13.7973 29.3325 13.6996 29.3494 13.5448 29.5015Z" fill="#131313"/>
<path d="M21.3228 29.4419C20.9155 29.5518 20.3291 30.1013 20.1662 30.5325C20.0929 30.7269 20.0196 31.0735 20.0115 31.3018C19.9952 31.6653 20.0278 31.7499 20.2232 31.9274C20.7038 32.3501 21.3391 32.0204 21.3391 31.3441C21.3391 31.0144 21.5834 30.7861 22.0151 30.7016C22.4712 30.617 22.6341 30.431 22.6422 29.9999C22.6422 29.4335 22.1373 29.2136 21.3228 29.4419Z" fill="#131313"/>
</g>
<defs>
<clipPath id="clip0_11722_10980">
<rect width="36" height="36" fill="white"/>
</clipPath>
</defs>
</svg>
